<svg width="32" height="32" viewBox="0 0 32 32" fill="none" xmlns="http://www.w3.org/2000/svg">
  <!-- Background circle -->
  <circle cx="16" cy="16" r="16" fill="#0f0f0f"/>
  
  <!-- Investigation magnifying glass -->
  <circle cx="13" cy="13" r="6" stroke="#ef4444" stroke-width="2" fill="none"/>
  <path d="m17.5 17.5 4 4" stroke="#ef4444" stroke-width="2" stroke-linecap="round"/>
  
  <!-- Dollar sign in magnifying glass -->
  <path d="M13 9v8M11 11h4c.6 0 1-.4 1-1s-.4-1-1-1h-2c-.6 0-1-.4-1-1s.4-1 1-1h4M11 15h4c.6 0 1 .4 1 1s-.4 1-1 1h-2c-.6 0-1 .4-1 1s.4 1 1 1h4" stroke="#ef4444" stroke-width="1.5" stroke-linecap="round"/>
  
  <!-- Small warning triangle -->
  <path d="M24 8l-2 4h4l-2-4z" fill="#fbbf24"/>
  <circle cx="24" cy="10" r="0.5" fill="#0f0f0f"/>
  <path d="M24 8.5v1" stroke="#0f0f0f" stroke-width="0.5"/>
</svg>
